<svg height="200px" width="200px" version="1.1" id="Layer_1" xmlns="http://www.w3.org/2000/svg" xmlns:xlink="http://www.w3.org/1999/xlink" viewBox="0 0 392.533 392.533" xml:space="preserve" fill="#000000"><g id="SVGRepo_bgCarrier" stroke-width="0"></g><g id="SVGRepo_tracerCarrier" stroke-linecap="round" stroke-linejoin="round"></g><g id="SVGRepo_iconCarrier"> <path style="fill:#FFC10D;" d="M111.968,348.962c-12.154-16.937-19.329-37.624-19.329-59.992 c0-57.083,46.416-103.628,103.628-103.628c45.188,0,81.907-36.719,81.907-81.778s-36.655-81.713-81.778-81.713h-0.065 c-96.259-0.065-174.545,78.222-174.545,174.416C21.786,261.883,58.246,319.16,111.968,348.962z"></path> <path style="fill:#56ACE0;" d="M370.747,196.267c0-65.616-36.396-122.764-90.053-152.63c12.024,16.937,19.135,37.56,19.135,59.863 c0,57.083-46.416,103.628-103.628,103.628c-45.188,0-81.907,36.719-81.907,81.778s36.719,81.778,81.842,81.778h0.065 C292.461,370.747,370.747,292.461,370.747,196.267z"></path> <g> <path style="fill:#FFFFFF;" d="M185.341,127.289c17.39-15.968,33.875-35.749,33.875-44.218c0-7.434-6.012-13.446-13.446-13.446 c-4.59,0-8.727,2.327-11.313,6.077c-4.331,6.594-13.899,6.594-18.23,0c-2.457-3.879-6.723-6.077-11.313-6.077 c-7.434,0-13.446,6.012-13.446,13.446C151.531,92.38,169.438,112.743,185.341,127.289z"></path> <path style="fill:#FFFFFF;" d="M207.257,265.244c-17.455,15.968-33.939,35.749-33.939,44.218c0,7.434,6.012,13.446,13.446,13.446 c4.59,0,8.727-2.327,11.313-6.077c4.331-6.594,13.899-6.594,18.23,0c2.521,3.879,6.723,6.077,11.313,6.077 c7.434,0,13.446-6.012,13.446-13.446C241.002,300.089,223.16,279.79,207.257,265.244z"></path> </g> <g> <path style="fill:#194F82;" d="M196.267,0C87.984,0,0,87.984,0,196.267s87.984,196.267,196.267,196.267 s196.267-87.984,196.267-196.267S304.549,0,196.267,0z M21.786,196.267c0-96.194,78.287-174.481,174.481-174.481h0.065 c45.059,0,81.778,36.719,81.778,81.778c0,45.123-36.719,81.778-81.907,81.778c-57.083,0-103.628,46.416-103.628,103.628 c0,22.432,7.176,43.055,19.329,59.992C58.246,319.16,21.786,261.883,21.786,196.267z M196.267,370.747h-0.065 c-45.059,0-81.778-36.719-81.778-81.778c0-45.123,36.719-81.778,81.907-81.778c57.083,0,103.628-46.416,103.628-103.628 c0-22.303-7.111-42.99-19.135-59.863c53.527,29.737,89.923,86.949,89.923,152.566C370.747,292.461,292.461,370.747,196.267,370.747 z"></path> <path style="fill:#194F82;" d="M178.424,150.109c4.073,3.297,9.956,3.297,13.964-0.065c11.442-9.568,48.679-42.796,48.679-66.974 c-0.065-19.459-15.838-35.297-35.297-35.297c-7.434,0-14.545,2.327-20.428,6.465c-5.883-4.202-12.994-6.465-20.428-6.465 c-19.459,0-35.297,15.838-35.297,35.297C129.681,108.477,170.214,143.386,178.424,150.109z M164.913,69.624 c4.59,0,8.727,2.327,11.313,6.077c4.331,6.594,13.899,6.594,18.23,0c2.521-3.879,6.723-6.077,11.313-6.077 c7.434,0,13.446,6.012,13.446,13.446c0,8.339-16.485,28.186-33.939,44.218c-15.838-14.545-33.745-34.844-33.745-44.218 C151.467,75.636,157.479,69.624,164.913,69.624z"></path> <path style="fill:#194F82;" d="M214.109,242.424c-4.073-3.297-9.956-3.297-13.964,0.065c-11.442,9.568-48.679,42.796-48.679,66.974 c0,19.459,15.838,35.297,35.297,35.297c7.434,0,14.545-2.327,20.428-6.465c5.883,4.202,12.994,6.465,20.428,6.465 c19.459,0,35.297-15.838,35.297-35.297C262.853,284.057,222.255,249.147,214.109,242.424z M227.556,322.909 c-4.59,0-8.727-2.327-11.313-6.077c-4.331-6.594-13.899-6.594-18.23,0c-2.457,3.879-6.723,6.077-11.313,6.077 c-7.434,0-13.446-6.012-13.446-13.446c0-8.339,16.485-28.186,33.939-44.218c15.903,14.481,33.875,34.844,33.875,44.218 C241.002,316.897,234.99,322.909,227.556,322.909z"></path> </g> </g></svg>